<svg xmlns="http://www.w3.org/2000/svg" viewBox="0 0 175.216 175.552"><defs><linearGradient id="orangeGrad" x1="85.915" x2="86.535" y1="32.567" y2="137.092" gradientUnits="userSpaceOnUse"><stop offset="0" stop-color="#fb923c"/><stop offset="1" stop-color="#ea580c"/></linearGradient><filter id="shadow" width="1.115" height="1.114" x="-.057" y="-.057" color-interpolation-filters="sRGB"><feGaussianBlur stdDeviation="3.531"/></filter></defs><path fill="#b3b3b3" d="m54.532 138.45 2.235 1.324c9.387 5.571 20.15 8.518 31.126 8.523h.023c33.707 0 61.139-27.426 61.153-61.135.006-16.335-6.349-31.696-17.895-43.251A60.75 60.75 0 0 0 87.94 25.983c-33.733 0-61.166 27.423-61.178 61.13a60.98 60.98 0 0 0 9.349 32.535l1.455 2.312-6.179 22.558zm-40.811 23.544L24.16 123.88c-6.438-11.154-9.825-23.808-9.821-36.772.017-40.556 33.021-73.55 73.578-73.55 19.681.01 38.154 7.669 52.047 21.572s21.537 32.383 21.53 52.037c-.018 40.553-33.027 73.553-73.578 73.553h-.032c-12.313-.005-24.412-3.094-35.159-8.954zm0 0" filter="url(#shadow)"/><path fill="#fff" d="m12.966 161.238 10.439-38.114a73.42 73.42 0 0 1-9.821-36.772c.017-40.556 33.021-73.55 73.578-73.55 19.681.01 38.154 7.669 52.047 21.572s21.537 32.383 21.53 52.037c-.018 40.553-33.027 73.553-73.578 73.553h-.032c-12.313-.005-24.412-3.094-35.159-8.954z"/><path fill="url(#orangeGrad)" d="M87.184 25.227c-33.733 0-61.166 27.423-61.178 61.13a60.98 60.98 0 0 0 9.349 32.535l1.455 2.313-6.179 22.558 23.146-6.069 2.235 1.324c9.387 5.571 20.15 8.517 31.126 8.523h.023c33.707 0 61.14-27.426 61.153-61.135a60.75 60.75 0 0 0-17.895-43.251 60.75 60.75 0 0 0-43.235-17.928z"/><rect x="58" y="55" width="58" height="52" rx="6" fill="none" stroke="#fff" stroke-width="5"/><line x1="58" y1="72" x2="116" y2="72" stroke="#fff" stroke-width="5"/><line x1="72" y1="46" x2="72" y2="60" stroke="#fff" stroke-width="5" stroke-linecap="round"/><line x1="102" y1="46" x2="102" y2="60" stroke="#fff" stroke-width="5" stroke-linecap="round"/><circle cx="73" cy="86" r="3.5" fill="#fff"/><circle cx="87" cy="86" r="3.5" fill="#fff"/><circle cx="101" cy="86" r="3.5" fill="#fff"/><circle cx="73" cy="98" r="3.5" fill="#fff"/><circle cx="87" cy="98" r="3.5" fill="#fff"/><circle cx="101" cy="98" r="3.5" fill="#fff"/></svg>
